# xmcd
#
# Track frame offsets:
#	150
#	17255
#	30412
#	50267
#	74230
#	98613
#	120886
#
# Disc length: 1841 seconds
#
# Revision: 1
# Processed by: cddbd v1.5.2PL0 Copyright (c) Steve Scherf et al.
# Submitted via: audiograbber 1.83.01
#
DISCID=49072f07
DTITLE=Blues, Sweat and Tears - We ain't got nothing but the blues
DYEAR=1997
DGENRE=Blues
TTITLE0=On the prowl
TTITLE1=I'm tore down
TTITLE2=I ain't got nothing but the blues
TTITLE3=Akos
TTITLE4=The thrill is gone
TTITLE5=Sticking
TTITLE6=Ain't that some shame
EXTD=
EXTT0=
EXTT1=
EXTT2=
EXTT3=
EXTT4=
EXTT5=
EXTT6=
PLAYORDER=
